<svg width="550" height="849" viewBox="0 0 550 849" fill="none" xmlns="http://www.w3.org/2000/svg">
<rect width="550" height="849" fill="#FEFBF9" fill-opacity="0.87"/>
<rect width="550" height="849" fill="#FEFBF9"/>
<path d="M238.241 458.136C205.785 449.634 177.149 430.426 156.968 403.624C136.787 376.821 126.243 343.991 127.042 310.45C127.842 276.909 139.938 244.619 161.373 218.808C182.807 192.997 212.326 175.175 245.15 168.229C277.974 161.282 312.181 165.617 342.235 180.531C372.289 195.446 396.429 220.067 410.748 250.408C425.067 280.75 428.727 315.037 421.135 347.717C413.543 380.398 395.143 409.559 368.915 430.481" stroke="#34210D" stroke-opacity="0.44" stroke-width="2"/>
<path d="M443 319.5C443 355.491 431.338 390.512 409.761 419.318C388.185 448.124 357.855 469.163 323.317 479.283C288.778 489.402 251.89 488.058 218.18 475.452C184.469 462.845 155.751 439.655 136.328 409.356C116.905 379.056 107.822 343.279 110.441 307.383C113.061 271.488 127.24 237.408 150.856 210.249C174.472 183.09 206.252 164.314 241.435 156.734C276.619 149.155 313.311 153.179 346.015 168.206" stroke="#34210D" stroke-opacity="0.4" stroke-width="2"/>
<path d="M133.337 204.791C157.999 176.151 190.745 155.687 227.251 146.101C263.756 136.515 302.302 138.258 337.799 151.1C373.295 163.942 404.071 187.279 426.062 218.029C448.053 248.779 460.223 285.495 460.964 323.326C461.705 361.157 450.983 398.324 430.215 429.916C409.446 461.509 379.608 486.04 344.642 500.271C309.676 514.501 271.227 517.761 234.375 509.621C197.522 501.48 163.999 482.321 138.234 454.675" stroke="#34210D" stroke-opacity="0.4" stroke-width="2"/>
</svg>
