<svg width="407" height="849" viewBox="0 0 407 849" fill="none" xmlns="http://www.w3.org/2000/svg">
<rect width="407" height="849" fill="#FEFBF9" fill-opacity="0.87"/>
<rect width="407" height="849" fill="#FEFBF9"/>
<path d="M165.241 458.136C132.785 449.634 104.149 430.426 83.968 403.624C63.7872 376.821 53.2429 343.991 54.0423 310.45C54.8417 276.909 66.9379 244.619 88.3727 218.808C109.807 192.997 139.326 175.175 172.15 168.229C204.974 161.282 239.181 165.617 269.235 180.531C299.289 195.446 323.429 220.067 337.748 250.408C352.067 280.75 355.727 315.037 348.135 347.717C340.543 380.398 322.143 409.559 295.915 430.481" stroke="#34210D" stroke-opacity="0.44" stroke-width="2"/>
<path d="M370 319.5C370 355.491 358.338 390.512 336.761 419.318C315.185 448.124 284.855 469.163 250.317 479.283C215.778 489.402 178.89 488.058 145.18 475.452C111.469 462.845 82.7511 439.655 63.3279 409.356C43.9048 379.056 34.8224 343.279 37.4415 307.383C40.0606 271.488 54.2402 237.408 77.8558 210.249C101.472 183.09 133.252 164.314 168.435 156.734C203.619 149.155 240.311 153.179 273.015 168.206" stroke="#34210D" stroke-opacity="0.4" stroke-width="2"/>
<path d="M60.3369 204.791C84.9988 176.151 117.745 155.687 154.251 146.101C190.756 136.515 229.302 138.258 264.799 151.1C300.295 163.942 331.071 187.279 353.062 218.029C375.053 248.779 387.223 285.495 387.964 323.326C388.705 361.157 377.983 398.324 357.215 429.916C336.446 461.509 306.608 486.04 271.642 500.271C236.676 514.501 198.227 517.761 161.375 509.621C124.522 501.48 90.9993 482.321 65.2342 454.675" stroke="#34210D" stroke-opacity="0.4" stroke-width="2"/>
</svg>
