<svg width="90" height="60" viewBox="0 0 90 60" fill="none" xmlns="http://www.w3.org/2000/svg">
<path d="M8.69151 59.7275C6.42647 59.7275 4.53676 58.9703 3.02236 57.4559C1.50796 55.9415 0.749128 54.0502 0.74585 51.7819V8.67076C0.74585 6.40572 1.50469 4.516 3.02236 3.00161C4.54003 1.48721 6.42811 0.728376 8.68659 0.725098H81.3088C83.5705 0.725098 85.4586 1.48393 86.973 3.00161C88.4874 4.51928 89.2462 6.409 89.2495 8.67076V51.7868C89.2495 54.0485 88.4907 55.9383 86.973 57.4559C85.4553 58.9736 83.5672 59.7308 81.3088 59.7275H8.69151ZM26.466 48.7629H63.5294V41.1909H26.466V48.7629ZM11.7154 34.0123H19.2775V26.4403H11.7154V34.0123ZM26.466 34.0123H34.0281V26.4403H26.466V34.0123ZM41.2166 34.0123H48.7787V26.4403H41.2166V34.0123ZM55.9672 34.0123H63.5294V26.4403H55.9672V34.0123ZM70.7178 34.0123H78.28V26.4403H70.7178V34.0123ZM11.7154 19.2617H19.2775V11.6897H11.7154V19.2617ZM26.466 19.2617H34.0281V11.6897H26.466V19.2617ZM41.2166 19.2617H48.7787V11.6897H41.2166V19.2617ZM55.9672 19.2617H63.5294V11.6897H55.9672V19.2617ZM70.7178 19.2617H78.28V11.6897H70.7178V19.2617Z" fill="white"/>
</svg>
