<svg width="15" height="15" viewBox="0 0 15 15" fill="none" xmlns="http://www.w3.org/2000/svg">
<mask id="path-1-inside-1_215_955" fill="white">
<path d="M10.7655 2.50505C10.6222 2.49847 10.4865 2.43893 10.3847 2.33773C9.62738 1.58024 8.60009 1.1547 7.52897 1.1547C6.45789 1.1547 5.43056 1.58024 4.67322 2.33773C4.56515 2.44523 4.419 2.50548 4.26655 2.50548C4.11409 2.50548 3.96782 2.44523 3.85974 2.33773C3.75052 2.22937 3.68912 2.08194 3.68912 1.92806C3.68912 1.77433 3.75052 1.62675 3.85974 1.51853C4.83335 0.546204 6.15294 0 7.52882 0C8.90481 0 10.2245 0.546204 11.1979 1.51853C11.3093 1.62846 11.371 1.77904 11.3691 1.93564C11.3672 2.09209 11.302 2.2411 11.188 2.34846C11.0742 2.45582 10.9215 2.51236 10.7652 2.50505H10.7655Z"/>
</mask>
<path d="M10.7655 2.50505C10.6222 2.49847 10.4865 2.43893 10.3847 2.33773C9.62738 1.58024 8.60009 1.1547 7.52897 1.1547C6.45789 1.1547 5.43056 1.58024 4.67322 2.33773C4.56515 2.44523 4.419 2.50548 4.26655 2.50548C4.11409 2.50548 3.96782 2.44523 3.85974 2.33773C3.75052 2.22937 3.68912 2.08194 3.68912 1.92806C3.68912 1.77433 3.75052 1.62675 3.85974 1.51853C4.83335 0.546204 6.15294 0 7.52882 0C8.90481 0 10.2245 0.546204 11.1979 1.51853C11.3093 1.62846 11.371 1.77904 11.3691 1.93564C11.3672 2.09209 11.302 2.2411 11.188 2.34846C11.0742 2.45582 10.9215 2.51236 10.7652 2.50505H10.7655Z" fill="white"/>
<path d="M10.7655 2.50505V4.50505L10.8573 0.507164L10.7655 2.50505ZM10.3847 2.33773L8.97036 3.75181L8.9746 3.75602L10.3847 2.33773ZM4.67322 2.33773L6.08368 3.75569L6.08757 3.7518L4.67322 2.33773ZM3.85974 2.33773L5.27007 0.919649L5.26834 0.917929L3.85974 2.33773ZM3.85974 1.51853L5.26749 2.9392L5.27302 2.93368L3.85974 1.51853ZM11.1979 1.51853L9.78444 2.93354L9.79288 2.94187L11.1979 1.51853ZM11.3691 1.93564L13.369 1.95943V1.95941L11.3691 1.93564ZM11.188 2.34846L9.81641 0.892907L9.8156 0.893674L11.188 2.34846ZM10.7652 2.50505V0.505055L10.6719 4.50288L10.7652 2.50505ZM10.8573 0.507164C11.2093 0.52334 11.5438 0.669824 11.7948 0.919436L8.9746 3.75602C9.42922 4.20803 10.0351 4.4736 10.6737 4.50295L10.8573 0.507164ZM11.7991 0.923652C10.6666 -0.209023 9.13055 -0.845299 7.52897 -0.845299V3.1547C8.06963 3.1547 8.58814 3.3695 8.97037 3.7518L11.7991 0.923652ZM7.52897 -0.845299C5.92744 -0.845299 4.39133 -0.209029 3.25886 0.923652L6.08757 3.7518C6.46979 3.36951 6.98834 3.1547 7.52897 3.1547V-0.845299ZM3.26276 0.91977C3.52979 0.654144 3.89089 0.505484 4.26655 0.505484V4.50548C4.94711 4.50548 5.6005 4.23631 6.08367 3.75569L3.26276 0.91977ZM4.26655 0.505484C4.64177 0.505484 5.0028 0.653831 5.27007 0.91965L2.4494 3.75581C2.93285 4.23662 3.58642 4.50548 4.26655 4.50548V0.505484ZM5.26834 0.917929C5.53773 1.1852 5.68912 1.54891 5.68912 1.92806H1.68912C1.68912 2.61497 1.96331 3.27355 2.45113 3.75753L5.26834 0.917929ZM5.68912 1.92806C5.68912 2.30692 5.53801 2.67112 5.26748 2.93919L2.452 0.0978741C1.96304 0.582381 1.68912 1.24173 1.68912 1.92806H5.68912ZM5.27302 2.93368C5.87173 2.33575 6.68306 2 7.52882 2V-2C5.62283 -2 3.79496 -1.24335 2.44645 0.103386L5.27302 2.93368ZM7.52882 2C8.3748 2 9.18612 2.33582 9.78447 2.93352L12.6113 0.103546C11.2629 -1.24342 9.43482 -2 7.52882 -2V2ZM9.79288 2.94187C9.51624 2.6688 9.36467 2.29638 9.36924 1.91187L13.369 1.95941C13.3773 1.26171 13.1023 0.588126 12.6029 0.0951918L9.79288 2.94187ZM9.36924 1.91185C9.37383 1.52637 9.53475 1.15832 9.81641 0.892908L12.5597 3.80402C13.0692 3.32387 13.3607 2.65781 13.369 1.95943L9.36924 1.91185ZM9.8156 0.893674C10.0968 0.628383 10.4732 0.489232 10.8585 0.507235L10.6719 4.50288C11.3698 4.53548 12.0517 4.28325 12.5605 3.80326L9.8156 0.893674ZM10.7652 4.50505H10.7655V0.505055H10.7652V4.50505Z" fill="#9741FF" mask="url(#path-1-inside-1_215_955)"/>
<path d="M9.13815 2.65886L9.12813 2.85339L9.12704 2.65885C9.1287 2.65882 9.13036 2.65879 9.13202 2.65878C9.13406 2.65879 9.13611 2.65882 9.13815 2.65886Z" fill="white" stroke="#9741FF" stroke-width="2"/>
<path d="M8.50945 10.6407L14 6.06433V13.6203H1V6.06437L6.4905 10.6407L6.49078 10.6409C6.77384 10.8767 7.13091 11.0062 7.50005 11.0062C7.86917 11.0062 8.2262 10.8766 8.50918 10.6409L8.50945 10.6407Z" fill="white" stroke="#9741FF" stroke-width="2"/>
<path d="M7.50018 7.37639L4.93145 5.23584H10.0687L7.50018 7.37639Z" fill="white" stroke="#9741FF" stroke-width="2"/>
</svg>
