<svg width="58" height="30" viewBox="0 0 58 30" fill="none" xmlns="http://www.w3.org/2000/svg">
<path d="M13.7762 13.2082C13.4539 12.1125 13.0672 10.2047 13.0672 10.2047H13.0156C13.0156 10.2047 12.6289 12.1125 12.3066 13.2082L11.3012 16.6113H14.7559L13.7762 13.2082ZM55.8254 0.498047H30.4438V29.502H55.8254C57.0371 29.502 58.0039 28.5352 58.0039 27.3234V2.67656C58.0039 1.46484 57.0371 0.498047 55.8254 0.498047ZM53.6469 11.3777C53.6469 11.9707 53.157 12.4605 52.5641 12.4605H51.5328C50.9012 14.6004 49.5605 16.7531 47.6656 18.7898C48.4262 19.3699 49.2125 19.9242 50.0375 20.427C50.5402 20.7363 50.6949 21.3809 50.4113 21.8965L49.6895 23.1598C49.3801 23.6883 48.6969 23.8687 48.1813 23.5465C47.034 22.8375 45.9641 22.0898 44.9715 21.2906C43.9789 22.077 42.909 22.8375 41.7617 23.5465C41.2332 23.8687 40.55 23.6883 40.2535 23.1598L39.5316 21.8965C39.248 21.3938 39.4027 20.7363 39.9184 20.427C40.7563 19.9113 41.5555 19.3699 42.2902 18.7898C41.5684 18.0293 40.9367 17.243 40.3824 16.4566C40.0215 15.941 40.1891 15.2191 40.7176 14.9098L41.3105 14.5617L41.968 14.175C42.4578 13.8914 43.0895 14.0203 43.4117 14.4844C43.8629 15.116 44.3914 15.7477 44.9844 16.3793C46.209 15.0902 47.1371 13.7625 47.7043 12.4605H37.3402C36.7473 12.4605 36.2574 11.9707 36.2574 11.3777V9.93398C36.2574 9.34102 36.7473 8.85117 37.3402 8.85117H43.141V7.40742C43.141 6.81445 43.6309 6.32461 44.2238 6.32461H45.6676C46.2605 6.32461 46.7504 6.81445 46.7504 7.40742V8.85117H52.5512C53.1441 8.85117 53.634 9.34102 53.634 9.93398V11.3777H53.6469ZM-0.00390625 2.67656V27.3234C-0.00390625 28.5352 0.962891 29.502 2.17461 29.502H27.5563V0.498047H2.17461C0.962891 0.498047 -0.00390625 1.46484 -0.00390625 2.67656ZM5.33281 22.2574L10.5406 6.93047C10.6953 6.49219 11.1078 6.1957 11.5719 6.1957H14.5238C14.9879 6.1957 15.4004 6.49219 15.5551 6.93047L20.7629 22.2574C20.9949 22.9664 20.4793 23.7012 19.7316 23.7012H17.6562C17.1793 23.7012 16.7539 23.3789 16.6121 22.9277L15.7613 20.0402H10.3086L9.48359 22.9277C9.3418 23.3918 8.91641 23.7141 8.43945 23.7141H6.36406C5.6293 23.7012 5.10078 22.9664 5.33281 22.2574Z" fill="#7735C2"/>
</svg>
